<?xml version="1.0" encoding="UTF-8"?>
<svg id="Layer_1" xmlns="http://www.w3.org/2000/svg" viewBox="0 0 394.43 129.89">
  <defs>
    <style>
      .cls-1 {
        fill: #fff;
      }
    </style>
  </defs>
  <path class="cls-1" d="M180.4,29.87c.31.8.78,1.57.91,2.39,2.48,15.54,4.92,31.1,7.38,46.64,1.02,6.46,2.28,12.83,6.58,18.1,3.57,4.38,8.01,7.08,13.77,7.4.95.05,1.88.35,2.82.53l.11,1.02c-1.03.3-2.05.79-3.1.85-13.33.8-23.34-6.77-26.26-20.66-1.88-8.93-2.76-18.07-4.08-27.11-.58-3.97-1.13-7.95-2.25-12.03-6.72,15.36-13.44,30.73-20.55,46.99-7.22-15.63-14.17-30.68-21.12-45.73-.2.02-.39.04-.59.06-.28,2.65-.6,5.31-.83,7.97-.83,9.68-1.58,19.38-2.49,29.05-.25,2.65.01,4.57,3.24,4.62.25,0,.51.21.72.38.13.11.19.32.28.48-1.86,1.93-16.11,1.73-17.53-.36.32-.17.63-.48.94-.49,5.22-.11,6.46-2.95,6.96-7.75,1.43-13.79,3.14-27.55,4.66-41.33.12-1.12-.09-2.46-.63-3.43-4.06-7.34-9.17-13.27-18.8-12.65l-.24-.97c.9-.47,1.77-1.26,2.72-1.37,8.31-.96,15.39,1.89,19.93,8.72,4.04,6.07,7,12.89,10.16,19.51,4.59,9.61,8.94,19.33,13.7,29.68,7.71-17.21,15.19-33.92,22.66-50.62.31.04.62.08.94.12Z"/>
  <path class="cls-1" d="M29.7,89.95c-.81.36-1.61.74-2.42,1.09-9.51,4.1-14.94,15.71-11.98,25.64,2.39,8.04,10.98,12.29,20.68,10.39,9.69-1.9,16.17-8.03,21.42-15.85,4.97-7.39,8.44-15.52,11.09-23.97,3.77-11.99,7.31-24.05,10.92-36.09.35-1.17.68-2.36.8-3.57.25-2.6-1.09-4.29-3.7-4.25-12.42.2-22.81,4.57-29.83,15.28-3.19,4.87-3.06,4.95-9.37,5.28,2.02-5.3,5.58-9.15,9.94-12.29,8.76-6.32,18.83-9.37,29.32-10.98,7.15-1.1,14.41-1.54,21.62-2.31,1.36-.14,2.71-.42,4.06-.64.08.26.15.51.23.77-1.53.51-3.03,1.37-4.58,1.45-4.2.21-6.64,2.63-7.93,6.21-2.22,6.17-4.12,12.46-6.19,18.68-3.55,10.67-6.64,21.52-10.85,31.92-4.5,11.09-11.62,20.52-22.09,26.85-9.18,5.55-19,8.13-29.67,4.93-15.64-4.69-17.11-21.7-7.07-31.41,4.21-4.07,11.24-7.48,15.6-7.13Z"/>
  <path class="cls-1" d="M245.13,31.66c11.31,0,22.63-.02,33.94.03,1.3,0,2.6.41,3.88.72,16.55,4.04,24.1,18.3,22.17,33.34-2.13,16.61-13.42,26.22-30.27,26.38-9.16.09-18.32.04-27.47.04-.74,0-1.49-.08-2.67-.8.64-.45,1.22-1.15,1.92-1.31,3.45-.81,4.56-1.92,4.57-5.32.03-15.48.03-30.97,0-46.45,0-2.83-1.29-4.07-4.25-4.66-.79-.16-1.5-.7-2.25-1.07.14-.3.29-.6.43-.9ZM258.26,35.49v52.65c6.78,0,13.4.36,19.96-.11,5.32-.38,9.65-3.25,13.32-7.27,7.65-8.37,7.85-25.9,2.33-34.68-3.66-5.83-8.73-9.9-15.63-10.48-6.55-.55-13.18-.12-19.98-.12Z"/>
  <path class="cls-1" d="M394.18,91.86h-20.55c.79-.8,1.25-1.68,1.82-1.76,2.84-.39,3.16-2.35,2.5-4.37-1.43-4.38-3.15-8.68-4.88-12.96-.22-.55-1.23-1.09-1.88-1.09-6.33-.08-12.66-.11-18.99.03-.8.02-1.97.94-2.31,1.73-1.62,3.71-3.06,7.5-4.49,11.29-1.23,3.28-.87,3.98,2.55,5.37.6.24,1.21.45,1.81.67-.26.4-.51.81-.77,1.21-1.44.07-2.88.18-4.32.19-4.06.03-8.13.04-12.19-.03-.54,0-1.08-.47-1.61-.72.48-.46.94-1.29,1.46-1.34,3.98-.35,5.89-3.01,7.27-6.29,6.75-15.97,13.49-31.95,20.21-47.94.51-1.21.81-2.51,1.31-3.73.26-.63.75-1.18,1.13-1.76.54.54,1.3.99,1.57,1.64,3.8,8.93,7.54,17.89,11.28,26.84,3.42,8.17,6.87,16.33,10.24,24.52,1.44,3.49,3.26,6.4,7.53,6.71.54.04,1.04.72,1.55,1.11-.08.22-.16.44-.24.65ZM361.87,42.77c-3.34,8.54-6.5,16.63-9.73,24.87h19.02c-3.1-8.29-6.11-16.35-9.29-24.87Z"/>
  <path class="cls-1" d="M211.82,60.41c4.44,0,8.68.03,12.93-.01,2.3-.02,3.69-1.19,4.07-3.51.11-.67.36-1.32.55-1.98.25-.02.51-.04.76-.06.27.77.76,1.54.78,2.32.09,3.4.09,6.8,0,10.2-.02.71-.59,1.39-.91,2.09-.39-.59-.99-1.14-1.13-1.79-.42-1.97-1.31-3.37-3.51-3.39-4.43-.04-8.86-.01-13.53-.01v23.86c4.92,0,9.74.24,14.52-.07,4.37-.28,7.45-2.91,9.5-6.73.53-1,.97-2.06,1.6-2.98.3-.44.95-.63,1.45-.94.13.55.51,1.19.36,1.64-1.35,4.02-2.75,8.02-4.26,11.98-.2.52-1.09,1.09-1.67,1.09-11.43.04-22.86,0-34.28-.03-.16,0-.32-.17-1.16-.66,1.03-.6,1.68-1.22,2.44-1.39,3.16-.69,4.39-1.95,4.4-5.19.04-15.49.03-30.98,0-46.47,0-2.92-1.26-4.2-4.14-4.74-.82-.15-1.57-.66-2.35-1,.08-.28.16-.57.24-.85,11.78-.29,23.56-.58,36.04-.89,0,2.83.02,6.42-.04,10,0,.28-.75.84-.93.76-.43-.19-.93-.62-1.06-1.06-1.55-5.2-1.53-5.2-6.84-5.2-4.53,0-9.05,0-13.81,0v25.02Z"/>
  <path class="cls-1" d="M67.36,39.46c-2.54.8-4.92,1.59-7.34,2.29-.46.13-1.16.12-1.5-.14-6.34-4.99-14.08-5.41-21.55-6.73-5.46-.96-10.96-1.81-16.31-3.2-5.06-1.32-9.23-3.99-9.67-9.99-.41-5.66,1.96-10.08,6.39-13.38C23.51,3.74,30.74,1.97,38.14.91c9.87-1.42,19.68-1.5,29.18,2.2,2.77,1.08,4.2-.32,5.05-2.91.3.16.6.31.9.47-1.76,5.86-3.53,11.72-5.29,17.58-.28-.07-.56-.15-.85-.22.1-1.63.13-3.27.32-4.9.39-3.41-1.32-5.78-4.13-7.04-2.87-1.29-6-2.43-9.1-2.72-9.18-.85-18.3-.12-26.96,3.31-2.65,1.05-5.25,2.66-7.34,4.59-4.47,4.1-3.7,9.67,1.87,12.11,3.99,1.74,8.41,2.59,12.7,3.54,7.33,1.64,14.78,2.81,22.06,4.66,4.4,1.11,8.28,3.51,10.8,7.88Z"/>
  <path class="cls-1" d="M309.89,91.14c.74-.38,1.43-.94,2.21-1.11,2.98-.64,4.27-1.93,4.28-5,.04-15.47.04-30.94,0-46.41,0-3.19-1.2-4.31-4.55-5.01-.7-.15-1.3-.77-1.95-1.17.1-.23.2-.46.29-.7h19.44c.1.23.2.45.3.68-.65.4-1.24,1.03-1.94,1.18-3.46.73-4.63,1.94-4.68,5.55-.08,5.94-.03,11.89-.03,17.83,0,8.96-.02,17.92.01,26.89.02,4.23.81,5.12,4.91,6.2.64.17,1.16.78,1.73,1.19-.09.22-.19.43-.28.65h-19.28c-.16-.26-.31-.51-.47-.77Z"/>
  <path class="cls-1" d="M4.88,46.12c-2.25,10.61,1.05,16.4,11.01,19.64,1.78.58,3.63,1.07,5.48,1.3,9.67,1.18,19.21.48,28.39-2.87,5.41-1.98,10.8-4.82,11.82-11.05.78-4.72,3.52-5.52,7.52-6.01.14,5.82-2.38,10.29-6.73,13.79-5.34,4.3-11.68,6.45-18.32,7.65-9.86,1.78-19.79,2.89-29.76.9-2.29-.46-4.58-1.13-6.72-2.05-8.77-3.79-10.27-14.59-2.7-21.3Z"/>
  <path class="cls-1" d="M51.35,87.4c-8.67,1.48-15.75-5.02-15.61-14.49,2.11-.32,4.27-.64,6.76-1.02.32,6.47,1.38,12.53,8.85,15.5Z"/>
</svg>